<svg xmlns="http://www.w3.org/2000/svg" version="1.1" xmlns:xlink="http://www.w3.org/1999/xlink" xmlns:svgjs="http://svgjs.dev/svgjs" viewBox="0 0 1422 800">
<g stroke-width="2" stroke="hsl(230, 55%, 40%)" fill="none" stroke-linecap="round"><path d="M 0 572 Q 355.5 -100 711 400 Q 1066.5 900 1422 572" stroke-dasharray="9 17" opacity="0.62"></path>
<path d="M 0 550 Q 355.5 -100 711 400 Q 1066.5 900 1422 550" stroke-dasharray="8 9" opacity="0.15"></path><path d="M 0 528 Q 355.5 -100 711 400 Q 1066.5 900 1422 528" stroke-dasharray="12 13" opacity="0.79"></path>
<path d="M 0 506 Q 355.5 -100 711 400 Q 1066.5 900 1422 506" stroke-dasharray="7 2" opacity="0.81"></path><path d="M 0 484 Q 355.5 -100 711 400 Q 1066.5 900 1422 484" stroke-dasharray="6 11" opacity="0.22"></path>

<path d="M 0 462 Q 355.5 -100 711 400 Q 1066.5 900 1422 462" stroke-dasharray="9 7" opacity="0.81"></path><path d="M 0 440 Q 355.5 -100 711 400 Q 1066.5 900 1422 440" stroke-dasharray="10 6" opacity="0.27"></path><path d="M 0 418 Q 355.5 -100 711 400 Q 1066.5 900 1422 418" stroke-dasharray="1 5" opacity="0.53"></path><path d="M 0 396 Q 355.5 -100 711 400 Q 1066.5 900 1422 396" stroke-dasharray="8 17" opacity="0.19"></path><path d="M 0 374 Q 355.5 -100 711 400 Q 1066.5 900 1422 374" stroke-dasharray="23 9" opacity="0.24"></path><path d="M 0 352 Q 355.5 -100 711 400 Q 1066.5 900 1422 352" stroke-dasharray="23 17" opacity="0.33"></path><path d="M 0 330 Q 355.5 -100 711 400 Q 1066.5 900 1422 330" stroke-dasharray="16 12" opacity="0.10"></path><path d="M 0 308 Q 355.5 -100 711 400 Q 1066.5 900 1422 308" stroke-dasharray="16 19" opacity="0.30"></path><path d="M 0 286 Q 355.5 -100 711 400 Q 1066.5 900 1422 286" stroke-dasharray="17 15" opacity="0.22"></path><path d="M 0 264 Q 355.5 -100 711 400 Q 1066.5 900 1422 264" stroke-dasharray="3 17" opacity="0.43"></path><path d="M 0 242 Q 355.5 -100 711 400 Q 1066.5 900 1422 242" stroke-dasharray="2 23" opacity="0.20"></path><path d="M 0 220 Q 355.5 -100 711 400 Q 1066.5 900 1422 220" stroke-dasharray="1 8" opacity="0.42"></path><path d="M 0 198 Q 355.5 -100 711 400 Q 1066.5 900 1422 198" stroke-dasharray="5 8" opacity="0.66"></path><path d="M 0 176 Q 355.5 -100 711 400 Q 1066.5 900 1422 176" stroke-dasharray="11 20" opacity="0.26"></path><path d="M 0 154 Q 355.5 -100 711 400 Q 1066.5 900 1422 154" stroke-dasharray="8 22" opacity="0.90"></path><path d="M 0 132 Q 355.5 -100 711 400 Q 1066.5 900 1422 132" stroke-dasharray="19 8" opacity="0.14"></path><path d="M 0 110 Q 355.5 -100 711 400 Q 1066.5 900 1422 110" stroke-dasharray="22 20" opacity="0.83"></path><path d="M 0 88 Q 355.5 -100 711 400 Q 1066.5 900 1422 88" stroke-dasharray="20 13" opacity="0.14"></path><path d="M 0 66 Q 355.5 -100 711 400 Q 1066.5 900 1422 66" stroke-dasharray="13 12" opacity="0.28"></path>
<path d="M 0 44 Q 355.5 -100 711 400 Q 1066.5 900 1422 44" stroke-dasharray="11 14" opacity="0.30"></path></g></svg>