<svg width="170" height="170" viewBox="0 0 170 170" fill="none" xmlns="http://www.w3.org/2000/svg">
<g filter="url(#filter0_d_54_3)">
<rect x="6" y="6" width="150" height="150" rx="75" fill="white"/>
<rect x="6" y="6" width="150" height="150" rx="75" stroke="#3B40B8" stroke-width="8"/>
</g>
<g filter="url(#filter1_d_54_3)">
<path d="M70.3705 100.01L70.3187 99.8885C69.5413 99.6737 68.7704 99.4355 68.0071 99.174L67.9496 99.1508C60.0058 96.4054 53.1107 91.2198 48.2294 84.3196C43.3481 77.4195 40.7251 69.1503 40.7274 60.6696C40.7248 50.2614 44.6738 40.2485 51.7611 32.6934C58.8483 25.1382 68.5341 20.6161 78.8233 20.0584C89.1125 19.5008 99.2217 22.9501 107.069 29.6959C114.915 36.4417 119.902 45.9703 121.002 56.319C121.255 58.7121 119.3 60.6696 116.92 60.6696C114.539 60.6696 112.636 58.7063 112.319 56.3248C111.554 50.7038 109.322 45.3898 105.85 40.9291C102.379 36.4684 97.7943 33.0218 92.5675 30.9436C87.3407 28.8654 81.6604 28.2305 76.1103 29.1042C70.5602 29.9779 65.3405 32.3287 60.9876 35.9149C56.6348 39.5011 53.3058 44.1934 51.3429 49.5096C49.3799 54.8257 48.8538 60.574 49.8186 66.1636C50.7833 71.7532 53.2042 76.9824 56.8323 81.314C60.4604 85.6455 65.165 88.9231 70.4625 90.8098C71.5296 88.3733 73.3935 86.3814 75.7416 85.1678C78.0898 83.9543 80.7796 83.593 83.3601 84.1444C85.9406 84.6958 88.2551 86.1265 89.9156 88.1966C91.5761 90.2667 92.4817 92.8504 92.4806 95.5147C92.4806 98.9881 90.974 102.101 88.5876 104.227C86.4874 106.101 83.7821 107.136 80.9799 107.137C78.7112 107.146 76.4914 106.472 74.6023 105.203C72.7133 103.934 71.2403 102.127 70.3705 100.01ZM57.9612 104.233C53.723 101.946 49.8419 99.0391 46.4432 95.6076C43.2928 95.9778 40.3868 97.504 38.2772 99.8962C36.1675 102.288 35.0013 105.38 35 108.584V111.941C35 117.122 36.8286 122.141 40.1638 126.085C49.1689 136.738 62.8892 142 80.9799 142C99.0705 142 112.797 136.738 121.819 126.085C125.162 122.139 126.999 117.117 127 111.924V108.584C127 105.12 125.638 101.797 123.215 99.3466C120.791 96.896 117.503 95.5178 114.073 95.5147H101.106C101.106 98.6396 100.416 101.59 99.1683 104.227H114.073C115.215 104.23 116.309 104.691 117.115 105.507C117.922 106.324 118.374 107.43 118.374 108.584V111.924C118.375 115.04 117.274 118.053 115.269 120.421C108.041 128.948 96.7301 133.281 80.9799 133.281C65.2296 133.281 53.9302 128.948 46.725 120.427C44.7214 118.061 43.6202 115.049 43.6198 111.935V108.584C43.6198 107.428 44.0742 106.32 44.883 105.503C45.6918 104.686 46.7887 104.227 47.9326 104.227L57.9612 104.233ZM57.9784 60.6696C57.9795 56.662 59.0067 52.7229 60.9604 49.2348C62.9141 45.7468 65.7277 42.8286 69.1279 40.7636C72.5281 38.6986 76.3993 37.5571 80.3654 37.4501C84.3314 37.343 88.2574 38.274 91.762 40.1526C95.2666 42.0311 98.2305 44.7934 100.366 48.1711C102.501 51.5487 103.735 55.4268 103.948 59.4286C104.161 63.4304 103.346 67.4198 101.581 71.0091C99.8166 74.5985 97.1629 77.6658 93.8779 79.9131C90.2588 76.8617 85.6941 75.1905 80.9799 75.1908C84.7926 75.1908 88.4492 73.6609 91.1452 70.9376C93.8412 68.2144 95.3558 64.5208 95.3558 60.6696C95.3558 56.8183 93.8412 53.1248 91.1452 50.4015C88.4492 47.6783 84.7926 46.1483 80.9799 46.1483C77.1671 46.1483 73.5106 47.6783 70.8146 50.4015C68.1186 53.1248 66.604 56.8183 66.604 60.6696C66.604 64.5208 68.1186 68.2144 70.8146 70.9376C73.5106 73.6609 77.1671 75.1908 80.9799 75.1908C76.0691 75.1908 71.5723 76.9682 68.0876 79.9131C64.9702 77.788 62.4179 74.9215 60.6551 71.5659C58.8922 68.2103 57.9731 64.4684 57.9784 60.6696Z" fill="#3B40B8"/>
</g>
<defs>
<filter id="filter0_d_54_3" x="0" y="0" width="170" height="170" filterUnits="userSpaceOnUse" color-interpolation-filters="sRGB">
<feFlood flood-opacity="0" result="BackgroundImageFix"/>
<feColorMatrix in="SourceAlpha" type="matrix" values="0 0 0 0 0 0 0 0 0 0 0 0 0 0 0 0 0 0 127 0" result="hardAlpha"/>
<feMorphology radius="2" operator="dilate" in="SourceAlpha" result="effect1_dropShadow_54_3"/>
<feOffset dx="4" dy="4"/>
<feGaussianBlur stdDeviation="2"/>
<feComposite in2="hardAlpha" operator="out"/>
<feColorMatrix type="matrix" values="0 0 0 0 0.44 0 0 0 0 0 0 0 0 0 1 0 0 0 0.25 0"/>
<feBlend mode="normal" in2="BackgroundImageFix" result="effect1_dropShadow_54_3"/>
<feBlend mode="normal" in="SourceGraphic" in2="effect1_dropShadow_54_3" result="shape"/>
</filter>
<filter id="filter1_d_54_3" x="31" y="20" width="100" height="130" filterUnits="userSpaceOnUse" color-interpolation-filters="sRGB">
<feFlood flood-opacity="0" result="BackgroundImageFix"/>
<feColorMatrix in="SourceAlpha" type="matrix" values="0 0 0 0 0 0 0 0 0 0 0 0 0 0 0 0 0 0 127 0" result="hardAlpha"/>
<feOffset dy="4"/>
<feGaussianBlur stdDeviation="2"/>
<feComposite in2="hardAlpha" operator="out"/>
<feColorMatrix type="matrix" values="0 0 0 0 0.44 0 0 0 0 0 0 0 0 0 1 0 0 0 0.57 0"/>
<feBlend mode="normal" in2="BackgroundImageFix" result="effect1_dropShadow_54_3"/>
<feBlend mode="normal" in="SourceGraphic" in2="effect1_dropShadow_54_3" result="shape"/>
</filter>
</defs>
</svg>
