<svg width="101" height="98" viewBox="0 0 101 98" fill="none" xmlns="http://www.w3.org/2000/svg">
<rect x="0.5" y="0.5" width="100" height="97" rx="48.5" fill="#000AFF" fill-opacity="0.08" stroke="#373CB8"/>
<g filter="url(#filter0_d_51_3)">
<path d="M44.992 58.3169L44.9627 58.2539C44.5233 58.143 44.0876 58.02 43.6562 57.8849L43.6237 57.8729C39.1337 56.4553 35.2365 53.7774 32.4775 50.2142C29.7185 46.651 28.2359 42.3809 28.2372 38.0015C28.2358 32.6268 30.4678 27.4562 34.4737 23.5548C38.4795 19.6533 43.954 17.3181 49.7697 17.0302C55.5853 16.7422 61.2992 18.5234 65.7344 22.0069C70.1696 25.4904 72.9883 30.4109 73.61 35.7549C73.753 36.9907 72.648 38.0015 71.3024 38.0015C69.9568 38.0015 68.881 36.9877 68.7022 35.7579C68.2699 32.8552 67.0079 30.1111 65.0458 27.8077C63.0837 25.5042 60.4924 23.7244 57.5382 22.6512C54.5839 21.578 51.3733 21.2502 48.2362 21.7014C45.0992 22.1525 42.149 23.3664 39.6887 25.2183C37.2284 27.0702 35.3468 29.4933 34.2373 32.2385C33.1278 34.9838 32.8304 37.9521 33.3757 40.8386C33.921 43.725 35.2893 46.4254 37.34 48.6621C39.3907 50.8989 42.0498 52.5914 45.044 53.5657C45.6472 52.3075 46.7007 51.2789 48.0279 50.6522C49.3551 50.0256 50.8754 49.839 52.334 50.1238C53.7925 50.4085 55.1007 51.1473 56.0393 52.2163C56.9778 53.2852 57.4897 54.6195 57.489 55.9953C57.489 57.789 56.6375 59.3967 55.2886 60.4945C54.1015 61.4621 52.5725 61.9965 50.9886 61.9972C49.7063 62.0014 48.4517 61.6538 47.3839 60.9985C46.3162 60.3432 45.4836 59.4098 44.992 58.3169ZM37.9781 60.4975C35.5826 59.3161 33.3889 57.8153 31.4679 56.0433C29.6872 56.2344 28.0447 57.0226 26.8523 58.2579C25.6599 59.4932 25.0007 61.0897 25 62.7441V64.4778C25 67.1533 26.0336 69.7448 27.9187 71.7815C33.0085 77.2825 40.7635 80 50.9886 80C61.2138 80 68.972 77.2825 74.0716 71.7815C75.9611 69.744 76.9997 67.1506 77 64.4688V62.7441C77 60.9552 76.2304 59.2396 74.8604 57.9741C73.4903 56.7086 71.6319 55.9969 69.6935 55.9953H62.3643C62.3643 57.609 61.9743 59.1327 61.269 60.4945H69.6935C70.3389 60.4961 70.9573 60.7338 71.413 61.1555C71.8688 61.5772 72.1247 62.1485 72.1247 62.7441V64.4688C72.1252 66.0778 71.5028 67.6341 70.3696 68.857C66.2841 73.2602 59.8909 75.4978 50.9886 75.4978C42.0863 75.4978 35.6997 73.2602 31.6272 68.86C30.4947 67.6379 29.8723 66.0828 29.8721 64.4748V62.7441C29.8721 62.1474 30.1289 61.5753 30.586 61.1534C31.0432 60.7315 31.6632 60.4945 32.3097 60.4945L37.9781 60.4975ZM37.9878 38.0015C37.9884 35.932 38.569 33.8979 39.6733 32.0967C40.7775 30.2955 42.3678 28.7885 44.2897 27.7222C46.2116 26.6558 48.3996 26.0664 50.6413 26.0111C52.883 25.9558 55.102 26.4366 57.0829 27.4067C59.0637 28.3767 60.739 29.8032 61.9459 31.5474C63.1528 33.2915 63.8503 35.2942 63.9707 37.3607C64.0911 39.4272 63.6302 41.4872 62.6328 43.3408C61.6355 45.1943 60.1356 46.7783 58.2788 47.9387C56.2332 46.363 53.6532 45.5 50.9886 45.5002C53.1436 45.5002 55.2104 44.7101 56.7342 43.3038C58.2581 41.8976 59.1141 39.9903 59.1141 38.0015C59.1141 36.0127 58.2581 34.1054 56.7342 32.6991C55.2104 31.2929 53.1436 30.5028 50.9886 30.5028C48.8336 30.5028 46.7669 31.2929 45.243 32.6991C43.7192 34.1054 42.8631 36.0127 42.8631 38.0015C42.8631 39.9903 43.7192 41.8976 45.243 43.3038C46.7669 44.7101 48.8336 45.5002 50.9886 45.5002C48.2129 45.5002 45.6713 46.418 43.7017 47.9387C41.9397 46.8414 40.4971 45.3611 39.5007 43.6283C38.5043 41.8955 37.9848 39.9632 37.9878 38.0015Z" fill="#3B40B8"/>
</g>
<defs>
<filter id="filter0_d_51_3" x="21" y="17" width="60" height="71" filterUnits="userSpaceOnUse" color-interpolation-filters="sRGB">
<feFlood flood-opacity="0" result="BackgroundImageFix"/>
<feColorMatrix in="SourceAlpha" type="matrix" values="0 0 0 0 0 0 0 0 0 0 0 0 0 0 0 0 0 0 127 0" result="hardAlpha"/>
<feOffset dy="4"/>
<feGaussianBlur stdDeviation="2"/>
<feComposite in2="hardAlpha" operator="out"/>
<feColorMatrix type="matrix" values="0 0 0 0 0 0 0 0 0 0 0 0 0 0 0 0 0 0 0.39 0"/>
<feBlend mode="normal" in2="BackgroundImageFix" result="effect1_dropShadow_51_3"/>
<feBlend mode="normal" in="SourceGraphic" in2="effect1_dropShadow_51_3" result="shape"/>
</filter>
</defs>
</svg>
